<svg xmlns="http://www.w3.org/2000/svg" viewBox="0 0 81 81" width="81" height="81">
  <defs>
    <linearGradient id="orangeGrad" x1="0.5" y1="0" x2="0.5" y2="1">
      <stop offset="0%" stop-color="#FFBB55"/>
      <stop offset="100%" stop-color="#FF6B2B"/>
    </linearGradient>
  </defs>

  <!-- 背景 -->
  <rect width="81" height="81" rx="18" fill="#FFF8F4"/>

  <!--
    定位针一体路径：
    圆心 (40.5, 32)，半径 22
    圆底切线两端约：左 (22.3, 42)，右 (58.7, 42)
    然后汇聚到针尖 (40.5, 72)
    用 arc + lineto 画出完整轮廓
  -->
  <path d="
    M 40.5 10
    A 22 22 0 0 1 62.5 32
    A 22 22 0 0 1 55 50.5
    L 40.5 72
    L 26 50.5
    A 22 22 0 0 1 18.5 32
    A 22 22 0 0 1 40.5 10
    Z
  " fill="url(#orangeGrad)"/>

  <!-- 橙子高光弧线 -->
  <path d="M 26 24 Q 33 16 44 18" stroke="rgba(255,255,255,0.50)" stroke-width="2.5" fill="none" stroke-linecap="round"/>
  <path d="M 22 32 Q 24 22 32 18" stroke="rgba(255,255,255,0.30)" stroke-width="2" fill="none" stroke-linecap="round"/>

  <!-- 叶子 -->
  <ellipse cx="46" cy="11" rx="5" ry="3" fill="#5DB84A" transform="rotate(-30 46 11)"/>
  <line x1="40.5" y1="10.5" x2="46" y2="11" stroke="#5DB84A" stroke-width="1.5" stroke-linecap="round"/>

  <!-- 三人汇聚（白色） -->
  <circle cx="33" cy="26" r="3" fill="white"/>
  <circle cx="40.5" cy="24" r="3" fill="white"/>
  <circle cx="48" cy="26" r="3" fill="white"/>
  <line x1="33" y1="29" x2="40.5" y2="38" stroke="white" stroke-width="2.2" stroke-linecap="round"/>
  <line x1="40.5" y1="27" x2="40.5" y2="38" stroke="white" stroke-width="2.2" stroke-linecap="round"/>
  <line x1="48" y1="29" x2="40.5" y2="38" stroke="white" stroke-width="2.2" stroke-linecap="round"/>
  <circle cx="40.5" cy="38" r="2.5" fill="white"/>
</svg>
